<svg width="256" height="256" viewBox="0 0 24 24" fill="none" xmlns="http://www.w3.org/2000/svg">
  <defs>
    <radialGradient id="bg_grad_3d" cx="50%" cy="50%" r="50%" fx="30%" fy="30%">
      <stop offset="0%" stop-color="#ffffff"/>
      <stop offset="100%" stop-color="#cbd5e1"/>
    </radialGradient>

    <filter id="drop_shadow" x="-20%" y="-20%" width="150%" height="150%">
      <feGaussianBlur in="SourceAlpha" stdDeviation="0.8"/>
      <feOffset dx="0" dy="1.2" result="offsetblur"/>
      <feComponentTransfer>
        <feFuncA type="linear" slope="0.3"/>
      </feComponentTransfer>
      <feMerge>
        <feMergeNode/>
        <feMergeNode in="SourceGraphic"/>
      </feMerge>
    </filter>

    <linearGradient id="pill_green" x1="9" y1="7" x2="15" y2="7" gradientUnits="userSpaceOnUse">
      <stop offset="0%" stop-color="#10b981"/>
      <stop offset="50%" stop-color="#34d399"/>
      <stop offset="100%" stop-color="#059669"/>
    </linearGradient>

    <linearGradient id="pill_yellow" x1="9" y1="12" x2="15" y2="12" gradientUnits="userSpaceOnUse">
      <stop offset="0%" stop-color="#f59e0b"/>
      <stop offset="50%" stop-color="#fbbf24"/>
      <stop offset="100%" stop-color="#d97706"/>
    </linearGradient>
  </defs>

  <circle cx="12" cy="12" r="11.5" fill="url(#bg_grad_3d)" />
  <circle cx="12" cy="12" r="11.5" stroke="#94a3b8" stroke-width="0.2" opacity="0.5"/>

  <g opacity="0.9">
    <path d="M12 2C6.48 2 2 6.48 2 12" stroke="#ef4444" stroke-width="2.8" stroke-linecap="round"/>
    <path d="M2 12C2 17.52 6.48 22 12 22" stroke="#f59e0b" stroke-width="2.8" stroke-linecap="round"/>
    <path d="M12 22C17.52 22 22 17.52 22 12C22 6.48 17.52 2 12 2" stroke="#10b981" stroke-width="3.8" stroke-linecap="round"/>
  </g>

  <g filter="url(#drop_shadow)">
    <rect x="9" y="7" width="6" height="10" rx="3" fill="url(#pill_green)" />
    <path d="M9 12H15V14C15 15.6569 13.6569 17 12 17C10.3431 17 9 15.6569 9 14V12Z" fill="url(#pill_yellow)" />

    <rect x="10" y="8" width="1.2" height="3" rx="0.6" fill="white" opacity="0.4" />
    <path d="M10 13Q10 15 12 15" stroke="white" stroke-width="0.5" stroke-linecap="round" opacity="0.3" fill="none"/>
  </g>
</svg>
